<svg width="29" height="28" viewBox="0 0 29 28" fill="none" xmlns="http://www.w3.org/2000/svg">
<path d="M27.336 15C27.6012 15 27.8556 14.8946 28.0431 14.7071C28.2307 14.5196 28.336 14.2652 28.336 14V12C28.336 11.7348 28.2307 11.4804 28.0431 11.2929C27.8556 11.1054 27.6012 11 27.336 11H25.336V10.21C25.3354 9.82718 25.2344 9.45122 25.0431 9.1196C24.8519 8.78798 24.577 8.51228 24.246 8.32C24.2084 6.7248 23.5853 5.19918 22.4954 4.03372C21.4056 2.86826 19.9251 2.14439 18.336 2V1C18.336 0.734784 18.2307 0.48043 18.0431 0.292893C17.8556 0.105357 17.6012 0 17.336 0C17.0708 0 16.8164 0.105357 16.6289 0.292893C16.4414 0.48043 16.336 0.734784 16.336 1V2C15.4719 2.06725 14.6309 2.31238 13.866 2.72C13.6513 2.85439 13.4955 3.0653 13.4302 3.31009C13.365 3.55489 13.3951 3.81534 13.5144 4.03881C13.6338 4.26228 13.8335 4.43212 14.0732 4.51402C14.313 4.59591 14.5749 4.58375 14.806 4.48C15.46 4.15114 16.1842 3.9864 16.916 4H17.756C18.8636 4.00026 19.9324 4.40812 20.7587 5.14582C21.5849 5.88352 22.1108 6.89947 22.236 8H12.436C12.4959 7.46199 12.6553 6.93979 12.906 6.46C12.9663 6.34258 13.0028 6.21438 13.0133 6.08279C13.0238 5.95121 13.0081 5.81886 12.9672 5.69335C12.9263 5.56785 12.861 5.45169 12.7749 5.35157C12.6889 5.25145 12.5839 5.16935 12.466 5.11C12.2311 4.99065 11.9585 4.96887 11.7076 5.04939C11.4566 5.12991 11.2477 5.30622 11.126 5.54C10.6896 6.40338 10.4505 7.35292 10.426 8.32C10.095 8.51228 9.82015 8.78798 9.6289 9.1196C9.43765 9.45122 9.33666 9.82718 9.33602 10.21V11H7.05602L5.33602 5.68C5.26644 5.47302 5.13102 5.2945 4.95045 5.17171C4.76988 5.04893 4.55408 4.98862 4.33602 5H1.66602C1.4008 5 1.14645 5.10536 0.958909 5.29289C0.771373 5.48043 0.666016 5.73478 0.666016 6C0.666016 6.26522 0.771373 6.51957 0.958909 6.70711C1.14645 6.89464 1.4008 7 1.66602 7H3.66602L5.33602 12.16V17.77C5.33692 18.1384 5.42864 18.5008 5.60307 18.8252C5.7775 19.1497 6.02925 19.4261 6.33602 19.63V24C6.33602 24.2652 6.44137 24.5196 6.62891 24.7071C6.81645 24.8946 7.0708 25 7.33602 25H8.38602C8.35401 25.1648 8.33728 25.3322 8.33602 25.5C8.33602 26.163 8.59941 26.7989 9.06825 27.2678C9.53709 27.7366 10.173 28 10.836 28C11.4991 28 12.1349 27.7366 12.6038 27.2678C13.0726 26.7989 13.336 26.163 13.336 25.5C13.3513 25.3337 13.3513 25.1663 13.336 25H20.436C20.404 25.1648 20.3873 25.3322 20.386 25.5C20.386 26.163 20.6494 26.7989 21.1182 27.2678C21.5871 27.7366 22.223 28 22.886 28C23.5491 28 24.1849 27.7366 24.6538 27.2678C25.1226 26.7989 25.386 26.163 25.386 25.5C25.3848 25.3322 25.368 25.1648 25.336 25H26.336C26.6012 25 26.8556 24.8946 27.0431 24.7071C27.2307 24.5196 27.336 24.2652 27.336 24V19.63C27.6428 19.4261 27.8945 19.1497 28.069 18.8252C28.2434 18.5008 28.3351 18.1384 28.336 17.77C28.336 17.5048 28.2307 17.2504 28.0431 17.0629C27.8556 16.8754 27.6012 16.77 27.336 16.77C27.0708 16.77 26.8164 16.8754 26.6289 17.0629C26.4414 17.2504 26.336 17.5048 26.336 17.77C26.336 17.8002 26.3301 17.8301 26.3185 17.858C26.3069 17.8859 26.29 17.9113 26.2687 17.9326C26.2473 17.954 26.2219 17.9709 26.194 17.9825C26.1661 17.9941 26.1362 18 26.106 18H25.216C25.0208 17.9993 24.8297 18.0558 24.6663 18.1624C24.5028 18.269 24.3741 18.4211 24.296 18.6C24.2557 18.7022 24.1937 18.7945 24.1143 18.8705C24.0349 18.9464 23.9399 19.0043 23.836 19.04C23.6194 19.0735 23.3978 19.0396 23.2011 18.9431C23.0043 18.8465 22.842 18.6918 22.736 18.5C22.6431 18.3382 22.5067 18.2056 22.3424 18.1172C22.178 18.0289 21.9922 17.9883 21.806 18C21.6201 18.0115 21.441 18.0747 21.2891 18.1824C21.1371 18.2902 21.0183 18.4383 20.946 18.61C20.9019 18.7088 20.8385 18.7977 20.7595 18.8715C20.6805 18.9454 20.5875 19.0027 20.486 19.04C20.2705 19.0744 20.0496 19.042 19.853 18.9473C19.6564 18.8526 19.4934 18.7 19.386 18.51C19.2944 18.3463 19.1587 18.2117 18.9942 18.1215C18.8298 18.0314 18.6433 17.9892 18.456 18C18.2712 18.0106 18.0929 18.0723 17.9411 18.1782C17.7892 18.2842 17.6698 18.4302 17.596 18.6C17.5521 18.7 17.4888 18.7903 17.4099 18.8659C17.3309 18.9414 17.2379 19.0005 17.136 19.04C16.9181 19.0727 16.6954 19.0387 16.4972 18.9423C16.299 18.8459 16.1348 18.6917 16.026 18.5C15.9331 18.3382 15.7967 18.2056 15.6324 18.1172C15.468 18.0289 15.2822 17.9883 15.096 18C14.9101 18.0115 14.731 18.0747 14.5791 18.1824C14.4271 18.2902 14.3083 18.4383 14.236 18.61C14.1957 18.7111 14.1335 18.802 14.054 18.8764C13.9745 18.9507 13.8796 19.0066 13.776 19.04C13.5605 19.0744 13.3396 19.042 13.143 18.9473C12.9464 18.8526 12.7834 18.7 12.676 18.51C12.5852 18.3479 12.451 18.2143 12.2885 18.1243C12.126 18.0342 11.9416 17.9911 11.756 18C11.5694 18.0088 11.389 18.0696 11.2353 18.1757C11.0815 18.2817 10.9605 18.4287 10.886 18.6C10.8441 18.7012 10.7815 18.7926 10.7023 18.8684C10.6231 18.9441 10.529 19.0026 10.426 19.04C10.211 19.0713 9.99153 19.0364 9.79682 18.94C9.60211 18.8435 9.44138 18.69 9.33602 18.5C9.24791 18.3474 9.12105 18.2208 8.96827 18.133C8.81549 18.0452 8.64223 17.9993 8.46602 18H7.56602C7.53581 18 7.5059 17.9941 7.478 17.9825C7.45009 17.9709 7.42474 17.954 7.40338 17.9326C7.38202 17.9113 7.36508 17.8859 7.35352 17.858C7.34196 17.8301 7.33602 17.8002 7.33602 17.77V13H26.336V14C26.336 14.2652 26.4414 14.5196 26.6289 14.7071C26.8164 14.8946 27.0708 15 27.336 15ZM11.336 25.5C11.336 25.5989 11.3067 25.6956 11.2518 25.7778C11.1968 25.86 11.1187 25.9241 11.0274 25.9619C10.936 25.9998 10.8355 26.0097 10.7385 25.9904C10.6415 25.9711 10.5524 25.9235 10.4825 25.8536C10.4125 25.7836 10.3649 25.6945 10.3456 25.5975C10.3263 25.5006 10.3362 25.4 10.3741 25.3087C10.4119 25.2173 10.476 25.1392 10.5582 25.0843C10.6405 25.0293 10.7371 25 10.836 25C10.9686 25 11.0958 25.0527 11.1896 25.1464C11.2833 25.2402 11.336 25.3674 11.336 25.5ZM23.336 25.5C23.336 25.5989 23.3067 25.6956 23.2518 25.7778C23.1968 25.86 23.1187 25.9241 23.0274 25.9619C22.936 25.9998 22.8355 26.0097 22.7385 25.9904C22.6415 25.9711 22.5524 25.9235 22.4825 25.8536C22.4125 25.7836 22.3649 25.6945 22.3456 25.5975C22.3263 25.5006 22.3362 25.4 22.3741 25.3087C22.4119 25.2173 22.476 25.1392 22.5582 25.0843C22.6405 25.0293 22.7371 25 22.836 25C22.9686 25 23.0958 25.0527 23.1896 25.1464C23.2833 25.2402 23.336 25.3674 23.336 25.5ZM10.956 21C11.2853 20.9096 11.5943 20.7568 11.866 20.55C12.371 20.9022 12.9704 21.0939 13.586 21.1C13.8396 21.1041 14.0924 21.0704 14.336 21C14.6669 20.9138 14.9767 20.7607 15.246 20.55C15.5971 20.7947 15.9965 20.9615 16.4173 21.0391C16.8382 21.1167 17.2707 21.1034 17.686 21C18.0169 20.9138 18.3267 20.7607 18.596 20.55C18.9471 20.7947 19.3465 20.9615 19.7673 21.0391C20.1882 21.1167 20.6207 21.1034 21.036 21C21.37 20.9138 21.6829 20.7607 21.956 20.55C22.298 20.7898 22.6871 20.9539 23.0975 21.0315C23.5079 21.1091 23.9301 21.0983 24.336 21C24.7047 20.9107 25.0473 20.736 25.336 20.49V23H8.33602V20.37C8.69335 20.672 9.11638 20.8863 9.5713 20.9957C10.0262 21.1051 10.5004 21.1066 10.956 21ZM11.336 11V10.21C11.336 10.1824 11.3414 10.1551 11.352 10.1296C11.3626 10.1042 11.378 10.081 11.3975 10.0615C11.417 10.042 11.4402 10.0265 11.4657 10.016C11.4911 10.0054 11.5184 10 11.546 10H23.126C23.1536 10 23.1809 10.0054 23.2064 10.016C23.2319 10.0265 23.255 10.042 23.2745 10.0615C23.294 10.081 23.3095 10.1042 23.32 10.1296C23.3306 10.1551 23.336 10.1824 23.336 10.21V11H11.336Z" fill="#F6C948"/>
</svg>
