<svg width="25" height="24" viewBox="0 0 25 24" fill="none" xmlns="http://www.w3.org/2000/svg">
<path d="M12.501 0.421997C12.7968 0.421362 13.0901 0.478442 13.3633 0.591919C13.6362 0.705313 13.8836 0.87236 14.0918 1.08215L23.418 10.4083C23.7338 10.7235 23.9497 11.1251 24.0371 11.5626C24.1245 12.0003 24.0799 12.4549 23.9092 12.8673C23.7385 13.2796 23.4492 13.6321 23.0781 13.88C22.707 14.1279 22.2705 14.2601 21.8242 14.2599H21.6289V20.9669L21.6162 21.2247C21.5566 21.8208 21.2936 22.3816 20.8672 22.8097C20.3797 23.299 19.718 23.575 19.0273 23.5782H15.3691C15.2615 23.5782 15.1551 23.5569 15.0557 23.5157C14.9562 23.4746 14.8662 23.4141 14.79 23.338C14.7139 23.2619 14.6535 23.1718 14.6123 23.0724C14.5711 22.973 14.5498 22.8665 14.5498 22.7589V17.381C14.5498 17.1225 14.4464 16.8743 14.2637 16.6915C14.081 16.5089 13.8335 16.4064 13.5752 16.4064H11.4336C11.1751 16.4064 10.9269 16.5088 10.7441 16.6915C10.5614 16.8743 10.459 17.1225 10.459 17.381V22.7589C10.459 22.8665 10.4376 22.973 10.3965 23.0724C10.3553 23.1717 10.2947 23.262 10.2188 23.338C10.1426 23.4141 10.0516 23.4746 9.95215 23.5157C9.85277 23.5569 9.74623 23.5782 9.63867 23.5782H5.98145C5.63784 23.5779 5.29774 23.51 4.98047 23.3781C4.66313 23.2461 4.37441 23.0532 4.13184 22.8097C3.88932 22.5662 3.69717 22.2769 3.56641 21.9591C3.43569 21.6414 3.36916 21.3007 3.37012 20.9572V14.2501H3.07715C2.63948 14.2314 2.2164 14.0854 1.86035 13.8302C1.50453 13.575 1.23046 13.2219 1.07227 12.8136C0.914015 12.4051 0.878549 11.9589 0.969727 11.5304C1.06094 11.102 1.27516 10.7091 1.58594 10.4005L10.9062 1.08215C11.1149 0.871919 11.3641 0.705401 11.6377 0.591919C11.911 0.478623 12.2041 0.421226 12.5 0.421997L12.501 0.421021V0.421997ZM12.5 1.70422C12.3725 1.70367 12.2457 1.7286 12.1279 1.77747C12.0105 1.82626 11.9039 1.89802 11.8145 1.9884L11.8135 1.98938L2.49023 11.3224C2.35713 11.4556 2.26521 11.6244 2.22656 11.8087C2.18791 11.9931 2.20403 12.185 2.27246 12.3605C2.34091 12.5359 2.4591 12.6875 2.6123 12.797C2.76556 12.9065 2.94756 12.9688 3.13574 12.9767H3.51758C3.81793 12.9767 4.10593 13.0964 4.31836 13.3087C4.53076 13.5211 4.65034 13.8091 4.65039 14.1095V20.9669C4.6504 21.1415 4.68509 21.3144 4.75195 21.4757C4.81886 21.6371 4.9174 21.7839 5.04102 21.9073C5.16457 22.0306 5.31132 22.1288 5.47266 22.1954C5.63399 22.262 5.80692 22.2963 5.98145 22.296H9.16699V17.38C9.16774 16.7818 9.40525 16.2083 9.82812 15.7853C10.2513 15.3621 10.8254 15.1238 11.4238 15.1232H13.5752C14.1736 15.1238 14.7477 15.3621 15.1709 15.7853C15.5938 16.2083 15.8313 16.7818 15.832 17.38V22.2911H19.0176C19.3699 22.291 19.7079 22.1506 19.957 21.9015C20.2061 21.6523 20.3457 21.3143 20.3457 20.962V14.1056C20.3457 13.8051 20.4653 13.5163 20.6777 13.3038C20.8901 13.0915 21.1782 12.9719 21.4785 12.9718H21.8242C22.0163 12.9716 22.2036 12.9145 22.3633 12.8077C22.523 12.7009 22.6481 12.5497 22.7217 12.3722C22.7952 12.1946 22.8138 11.9992 22.7764 11.8107C22.7389 11.6222 22.6466 11.4486 22.5107 11.3126L13.1855 1.98938L13.1846 1.9884C13.0955 1.89803 12.9892 1.82627 12.8721 1.77747C12.7547 1.72862 12.6281 1.70371 12.501 1.70422H12.5Z" fill="#F6C948" stroke="#F6C948" stroke-width="0.3" stroke-linejoin="round"/>
</svg>
