<svg width="22" height="22" viewBox="0 0 22 22" fill="none" xmlns="http://www.w3.org/2000/svg">
<path d="M6.44531 9.93439H15.5719V10.9656H6.44531V9.93439ZM6.44531 14.4719H12.0312V15.5031H6.44531V14.4719Z" fill="#F6C948"/>
<path d="M17.5828 21.0889H4.41719C4.14219 21.0889 3.88437 21.0373 3.62656 20.9342C3.38594 20.8311 3.1625 20.6936 2.99062 20.5045C2.80156 20.3154 2.66406 20.1092 2.56094 19.8686C2.45781 19.6108 2.40625 19.3529 2.40625 19.0779V5.3795C2.40625 5.1045 2.45781 4.84669 2.56094 4.58888C2.66406 4.34825 2.80156 4.12482 2.99062 3.95294C3.17969 3.76388 3.38594 3.62638 3.62656 3.52325C3.88437 3.42013 4.14219 3.36857 4.41719 3.36857H6.41094V4.38263H4.41719C3.86719 4.38263 3.40312 4.8295 3.40312 5.39669V19.0951C3.40312 19.6451 3.85 20.1092 4.41719 20.1092H17.5656C18.1156 20.1092 18.5797 19.6623 18.5797 19.0951V5.3795C18.5797 4.8295 18.1328 4.36544 17.5656 4.36544H15.5891V3.35138H17.5828C17.8578 3.35138 18.1156 3.40294 18.3734 3.50607C18.6141 3.60919 18.8375 3.74669 19.0094 3.93575C19.1984 4.12482 19.3359 4.33107 19.4391 4.57169C19.5422 4.8295 19.5937 5.08732 19.5937 5.36232V19.0608C19.5937 19.3358 19.5422 19.5936 19.4391 19.8514C19.3359 20.092 19.1984 20.3154 19.0094 20.4873C18.8203 20.6764 18.6141 20.8139 18.3734 20.917C18.1156 21.0373 17.8578 21.0889 17.5828 21.0889Z" fill="#F6C948"/>
<path d="M16.0535 6.39398H5.94727V3.09398C5.94727 2.38929 6.51445 1.82211 7.21914 1.82211H8.52539C8.98945 0.893982 9.95195 0.292419 11.0176 0.292419C12.0832 0.292419 13.0457 0.893982 13.5098 1.82211H14.816C15.5207 1.82211 16.0879 2.38929 16.0879 3.09398L16.0535 6.39398ZM6.96133 5.37992H15.0566V3.09398C15.0566 2.95648 14.9363 2.83617 14.7988 2.83617H12.7879L12.6676 2.49242C12.427 1.78773 11.7566 1.30648 11.0004 1.30648C10.2441 1.30648 9.57383 1.78773 9.3332 2.49242L9.21289 2.83617H7.20195C7.06445 2.83617 6.94414 2.95648 6.94414 3.09398V5.37992H6.96133Z" fill="#F6C948"/>
</svg>
