<svg width="221" height="221" viewBox="0 0 221 221" fill="none" xmlns="http://www.w3.org/2000/svg">
<g clip-path="url(#clip0_521_14505)">
<path d="M107.118 25.812H100.337V32.5934H107.118V25.812Z" fill="#222221"/>
<path d="M147.771 25.8298V73.2466H195.259V25.8298H147.771ZM188.406 39.3749V66.4829H154.535V32.5935H188.406V39.3749Z" fill="#222221"/>
<path d="M39.375 46.1386V52.92V59.7014H59.7015V52.92V46.1386V39.3749H39.375V46.1386Z" fill="#222221"/>
<path d="M93.5554 52.92H80.0103V59.7015H93.5554V52.92Z" fill="#222221"/>
<path d="M100.337 59.7014V66.4651H107.118V59.7014H113.882V66.4651H120.663V59.7014H127.445V52.92H120.663V46.1385H140.99V39.3749H127.445V32.5934V25.812H120.663V32.5934H107.118V39.3749V46.1385H113.882V52.92H107.118V46.1385H100.337V39.3749H86.7917V32.5934V25.812H80.0103V32.5934V39.3749V46.1385H93.5731V52.92H100.337V59.7014Z" fill="#222221"/>
<path d="M140.99 52.92H134.208V59.7015H140.99V52.92Z" fill="#222221"/>
<path d="M181.643 52.92V46.1386V39.3749H161.316V46.1386V52.92V59.7014H181.643V52.92Z" fill="#222221"/>
<path d="M73.2463 66.4829V25.8298H25.8296V73.2466H73.2463V66.4829ZM32.5933 66.4829V32.5935H66.4649V66.4829H32.5933Z" fill="#222221"/>
<path d="M86.7917 66.4651H80.0103V73.2465H86.7917V66.4651Z" fill="#222221"/>
<path d="M100.355 66.4651H93.5732V73.2465H100.355V66.4651Z" fill="#222221"/>
<path d="M113.9 66.4651H107.118V73.2465H113.9V66.4651Z" fill="#222221"/>
<path d="M127.445 66.4651H120.663V73.2465H127.445V66.4651Z" fill="#222221"/>
<path d="M120.663 73.2466H113.882V80.028H120.663V73.2466Z" fill="#222221"/>
<path d="M174.861 86.7917H168.08V80.0103H161.316V86.7917H154.535V93.5731H147.753V100.337H154.535V107.118H161.316V100.337V93.5731H168.08V100.337V107.118H188.406V113.882H195.188V107.118V100.337V93.5731H188.406V100.337H174.861V93.5731H188.406V86.7917H195.188V80.0103H174.861V86.7917Z" fill="#222221"/>
<path d="M73.2466 100.337V93.5731H66.4652V86.7917H73.2466V93.5731H80.0103V86.7917H86.7917V93.5731H80.0103V100.337H93.5732V107.118H100.337V100.337V93.5731H93.5732V86.7917V80.0103H46.1387V86.7917H59.7015V93.5731H46.1387V100.337H52.9201V107.118H59.7015V100.337H73.2466Z" fill="#222221"/>
<path d="M32.5934 100.337H39.3749V93.5731V86.7917H32.5934V80.0103H25.812V86.7917V93.5731V100.337V107.118V113.882V120.663V127.445V134.208V140.99H32.5934V134.208V127.445H39.3749V120.663H32.5934V113.882H39.3749V107.118H32.5934V100.337Z" fill="#222221"/>
<path d="M46.1564 100.337H39.375V107.118H46.1564V100.337Z" fill="#222221"/>
<path d="M80.028 100.337H73.2466V107.118H80.028V100.337Z" fill="#222221"/>
<path d="M113.882 113.882V107.118V100.337H120.663V93.573H127.445V100.337H140.99V93.573H134.209V86.7916H140.99V93.573H147.754V86.7916V80.0102H140.99V73.2465V66.4651H134.209V73.2465V80.0102H127.445V86.7916H113.882V93.573H107.118V100.337V107.118H100.337V113.882H113.882Z" fill="#222221"/>
<path d="M154.552 107.118H147.771V113.9H154.552V107.118Z" fill="#222221"/>
<path d="M93.5729 113.882H86.7915V120.663H93.5729V113.882Z" fill="#222221"/>
<path d="M181.643 120.663H168.08V113.882H161.316V120.663V127.445H168.08V134.208H174.862V140.99V147.753H188.407V140.99V134.208H181.643V127.445H188.407V134.208H195.188V127.445V120.663H188.407V113.882H181.643V120.663Z" fill="#222221"/>
<path d="M52.9201 120.663H46.1387V127.445V134.208H52.9201V127.445V120.663Z" fill="#222221"/>
<path d="M80.0101 127.445H86.7916V120.663H80.0101V113.882H73.2465V120.663H66.465V113.882H73.2465V107.118H59.7014V113.882H52.9199V120.663H59.7014V127.445V134.208H66.465V127.445H73.2465V134.208H66.465V140.99H80.0101V134.208V127.445Z" fill="#222221"/>
<path d="M161.317 127.462H154.535V134.244H147.771V127.462H154.535V120.681H147.771V113.917H140.99V107.136H127.445V113.917H113.9V120.681H100.337V134.244H107.118V127.462H127.445V141.008H120.699V154.57H127.48V147.789H134.262V154.57H127.445V168.115H147.771V174.879H154.535V168.115H168.098V134.226H161.317V127.462ZM161.317 147.789V161.334H140.99V140.99H161.317V147.789Z" fill="#222221"/>
<path d="M59.7014 134.208H52.9199V140.99H59.7014V134.208Z" fill="#222221"/>
<path d="M120.663 134.208H113.882V140.99H120.663V134.208Z" fill="#222221"/>
<path d="M113.9 147.771V140.99H100.337V134.226H93.5729V127.462H86.7915V141.008H93.5729V147.789H86.7915V141.008H80.0278V174.861H93.5729V168.098H100.337V154.553H107.118V147.771H113.9ZM93.5729 161.316H86.7915V154.553H93.5729V161.316Z" fill="#222221"/>
<path d="M25.8296 154.553V195.188H73.2463V147.771H25.8296V154.553ZM66.4649 154.553V188.424H32.5933V154.553H66.4649Z" fill="#222221"/>
<path d="M154.552 147.753H147.771V154.535H154.552V147.753Z" fill="#222221"/>
<path d="M195.188 147.753H188.406V154.535H195.188V147.753Z" fill="#222221"/>
<path d="M120.663 161.316V154.535H107.118V161.316V168.08H113.882V161.316H120.663Z" fill="#222221"/>
<path d="M181.643 161.316V168.08V174.861H161.317V181.643H154.535V188.407H168.08V181.643H174.862V188.407H188.407V195.188H195.188V188.407V181.643V174.861V168.08V161.316H188.407V154.535H181.643V161.316Z" fill="#222221"/>
<path d="M113.882 174.861H107.118V181.643H120.663V174.861H127.445V168.08H113.882V174.861Z" fill="#222221"/>
<path d="M59.7015 174.861V168.08V161.316H39.375V168.08V174.861V181.643H59.7015V174.861Z" fill="#222221"/>
<path d="M147.771 174.861H140.99V181.643H147.771V174.861Z" fill="#222221"/>
<path d="M86.7917 188.406H80.0103V195.188H86.7917V188.406Z" fill="#222221"/>
<path d="M107.118 188.406V195.188H127.445V188.406V181.643H120.663V188.406H107.118Z" fill="#222221"/>
<path d="M147.754 188.406H134.208V195.188H147.754V188.406Z" fill="#222221"/>
<path d="M174.862 188.406H168.08V195.188H174.862V188.406Z" fill="#222221"/>
<path d="M4.52687 48.4286H0V0H46.1386V4.52687H4.52687V48.4286Z" fill="#F6C948"/>
<path d="M221 48.4286H216.491V4.52687H174.861V0H221V48.4286Z" fill="#F6C948"/>
<path d="M46.1386 221H0V177.151H4.52687V216.473H46.1386V221Z" fill="#F6C948"/>
<path d="M221 221H174.861V216.473H216.491V177.151H221V221Z" fill="#F6C948"/>
</g>
<defs>
<clipPath id="clip0_521_14505">
<rect width="221" height="221" fill="white"/>
</clipPath>
</defs>
</svg>
