<svg width="25" height="25" viewBox="0 0 25 25" fill="none" xmlns="http://www.w3.org/2000/svg">
<mask id="path-1-outside-1_134_1315" maskUnits="userSpaceOnUse" x="-0.442383" y="-0.479431" width="26" height="26" fill="black">
<rect fill="white" x="-0.442383" y="-0.479431" width="26" height="26"/>
<path d="M23.4605 8.92057V21.588C23.4599 22.094 23.2586 22.5791 22.9008 22.9369C22.543 23.2947 22.0579 23.496 21.5519 23.4966H3.45133C2.94512 23.496 2.45978 23.2948 2.10162 22.937C1.74347 22.5793 1.54168 22.0942 1.54047 21.588V8.92057H23.4605ZM24.4433 7.93771H0.557617V21.588C0.557617 21.9679 0.632482 22.3441 0.777932 22.695C0.923383 23.046 1.13657 23.3648 1.4053 23.6333C1.67404 23.9019 1.99306 24.1148 2.34413 24.26C2.69519 24.4051 3.07143 24.4797 3.45133 24.4794H21.5519C21.9316 24.4794 22.3076 24.4046 22.6584 24.2593C23.0092 24.114 23.3279 23.901 23.5964 23.6325C23.8649 23.364 24.0779 23.0453 24.2232 22.6945C24.3685 22.3437 24.4433 21.9677 24.4433 21.588V7.93771Z"/>
<path d="M21.5519 2.78342C22.0581 2.78463 22.5432 2.98641 22.9009 3.34457C23.2587 3.70273 23.4599 4.18807 23.4605 4.69428V7.86913H1.54047V4.69428C1.54108 4.18767 1.74259 3.70199 2.10082 3.34377C2.45904 2.98554 2.94473 2.78403 3.45133 2.78342H21.5519ZM21.5519 1.80056H3.45133C2.68387 1.80056 1.94784 2.10544 1.40517 2.64811C0.86249 3.19079 0.557617 3.92682 0.557617 4.69428V8.85199H24.4433V4.69428C24.4433 3.92721 24.1388 3.19153 23.5966 2.64892C23.0544 2.10631 22.319 1.80117 21.5519 1.80056Z"/>
<path d="M5.83524 1.06V5.268C5.83524 5.41106 5.77841 5.54827 5.67724 5.64943C5.57608 5.75059 5.43888 5.80742 5.29581 5.80742C5.15275 5.80742 5.01554 5.75059 4.91438 5.64943C4.81322 5.54827 4.75638 5.41106 4.75638 5.268V1.06C4.75638 0.916932 4.81322 0.779726 4.91438 0.678564C5.01554 0.577401 5.15275 0.520569 5.29581 0.520569C5.43888 0.520569 5.57608 0.577401 5.67724 0.678564C5.77841 0.779726 5.83524 0.916932 5.83524 1.06Z"/>
<path d="M10.64 1.06V5.268C10.6311 5.40529 10.5702 5.53405 10.4698 5.62812C10.3694 5.7222 10.237 5.77455 10.0994 5.77455C9.96183 5.77455 9.82941 5.7222 9.72901 5.62812C9.62862 5.53405 9.56778 5.40529 9.55885 5.268V1.06C9.56778 0.922709 9.62862 0.793959 9.72901 0.699884C9.82941 0.605809 9.96183 0.553458 10.0994 0.553458C10.237 0.553458 10.3694 0.605809 10.4698 0.699884C10.5702 0.793959 10.6311 0.922709 10.64 1.06Z"/>
<path d="M15.4423 1.06V5.268C15.4423 5.41106 15.3854 5.54827 15.2843 5.64943C15.1831 5.75059 15.0459 5.80742 14.9028 5.80742C14.7598 5.80742 14.6226 5.75059 14.5214 5.64943C14.4202 5.54827 14.3634 5.41106 14.3634 5.268V1.06C14.3634 0.916932 14.4202 0.779726 14.5214 0.678564C14.6226 0.577401 14.7598 0.520569 14.9028 0.520569C15.0459 0.520569 15.1831 0.577401 15.2843 0.678564C15.3854 0.779726 15.4423 0.916932 15.4423 1.06Z"/>
<path d="M20.2466 1.06V5.268C20.2377 5.40529 20.1769 5.53405 20.0765 5.62812C19.9761 5.7222 19.8436 5.77455 19.7061 5.77455C19.5685 5.77455 19.4361 5.7222 19.3357 5.62812C19.2353 5.53405 19.1744 5.40529 19.1655 5.268V1.06C19.1744 0.922709 19.2353 0.793959 19.3357 0.699884C19.4361 0.605809 19.5685 0.553458 19.7061 0.553458C19.8436 0.553458 19.9761 0.605809 20.0765 0.699884C20.1769 0.793959 20.2377 0.922709 20.2466 1.06Z"/>
<path d="M9.37128 12.8474H11.5541V15.0303H9.37128V12.8474Z"/>
<path d="M13.4466 12.8474H15.6295V15.0303H13.4466V12.8474Z"/>
<path d="M17.522 12.8474H19.7049V15.0303H17.522V12.8474Z"/>
<path d="M5.29592 16.2691H7.47877V18.452H5.29592V16.2691Z"/>
<path d="M9.37128 16.2691H11.5541V18.452H9.37128V16.2691Z"/>
<path d="M13.4466 16.2691H15.6295V18.452H13.4466V16.2691Z"/>
<path d="M17.522 16.2691H19.7049V18.452H17.522V16.2691Z"/>
<path d="M5.29592 19.6909H7.47877V21.8737H5.29592V19.6909Z"/>
<path d="M9.37128 19.6909H11.5541V21.8737H9.37128V19.6909Z"/>
<path d="M13.4466 19.6909H15.6295V21.8737H13.4466V19.6909Z"/>
</mask>
<path d="M23.4605 8.92057V21.588C23.4599 22.094 23.2586 22.5791 22.9008 22.9369C22.543 23.2947 22.0579 23.496 21.5519 23.4966H3.45133C2.94512 23.496 2.45978 23.2948 2.10162 22.937C1.74347 22.5793 1.54168 22.0942 1.54047 21.588V8.92057H23.4605ZM24.4433 7.93771H0.557617V21.588C0.557617 21.9679 0.632482 22.3441 0.777932 22.695C0.923383 23.046 1.13657 23.3648 1.4053 23.6333C1.67404 23.9019 1.99306 24.1148 2.34413 24.26C2.69519 24.4051 3.07143 24.4797 3.45133 24.4794H21.5519C21.9316 24.4794 22.3076 24.4046 22.6584 24.2593C23.0092 24.114 23.3279 23.901 23.5964 23.6325C23.8649 23.364 24.0779 23.0453 24.2232 22.6945C24.3685 22.3437 24.4433 21.9677 24.4433 21.588V7.93771Z" fill="#F6C948"/>
<path d="M21.5519 2.78342C22.0581 2.78463 22.5432 2.98641 22.9009 3.34457C23.2587 3.70273 23.4599 4.18807 23.4605 4.69428V7.86913H1.54047V4.69428C1.54108 4.18767 1.74259 3.70199 2.10082 3.34377C2.45904 2.98554 2.94473 2.78403 3.45133 2.78342H21.5519ZM21.5519 1.80056H3.45133C2.68387 1.80056 1.94784 2.10544 1.40517 2.64811C0.86249 3.19079 0.557617 3.92682 0.557617 4.69428V8.85199H24.4433V4.69428C24.4433 3.92721 24.1388 3.19153 23.5966 2.64892C23.0544 2.10631 22.319 1.80117 21.5519 1.80056Z" fill="#F6C948"/>
<path d="M5.83524 1.06V5.268C5.83524 5.41106 5.77841 5.54827 5.67724 5.64943C5.57608 5.75059 5.43888 5.80742 5.29581 5.80742C5.15275 5.80742 5.01554 5.75059 4.91438 5.64943C4.81322 5.54827 4.75638 5.41106 4.75638 5.268V1.06C4.75638 0.916932 4.81322 0.779726 4.91438 0.678564C5.01554 0.577401 5.15275 0.520569 5.29581 0.520569C5.43888 0.520569 5.57608 0.577401 5.67724 0.678564C5.77841 0.779726 5.83524 0.916932 5.83524 1.06Z" fill="#F6C948"/>
<path d="M10.64 1.06V5.268C10.6311 5.40529 10.5702 5.53405 10.4698 5.62812C10.3694 5.7222 10.237 5.77455 10.0994 5.77455C9.96183 5.77455 9.82941 5.7222 9.72901 5.62812C9.62862 5.53405 9.56778 5.40529 9.55885 5.268V1.06C9.56778 0.922709 9.62862 0.793959 9.72901 0.699884C9.82941 0.605809 9.96183 0.553458 10.0994 0.553458C10.237 0.553458 10.3694 0.605809 10.4698 0.699884C10.5702 0.793959 10.6311 0.922709 10.64 1.06Z" fill="#F6C948"/>
<path d="M15.4423 1.06V5.268C15.4423 5.41106 15.3854 5.54827 15.2843 5.64943C15.1831 5.75059 15.0459 5.80742 14.9028 5.80742C14.7598 5.80742 14.6226 5.75059 14.5214 5.64943C14.4202 5.54827 14.3634 5.41106 14.3634 5.268V1.06C14.3634 0.916932 14.4202 0.779726 14.5214 0.678564C14.6226 0.577401 14.7598 0.520569 14.9028 0.520569C15.0459 0.520569 15.1831 0.577401 15.2843 0.678564C15.3854 0.779726 15.4423 0.916932 15.4423 1.06Z" fill="#F6C948"/>
<path d="M20.2466 1.06V5.268C20.2377 5.40529 20.1769 5.53405 20.0765 5.62812C19.9761 5.7222 19.8436 5.77455 19.7061 5.77455C19.5685 5.77455 19.4361 5.7222 19.3357 5.62812C19.2353 5.53405 19.1744 5.40529 19.1655 5.268V1.06C19.1744 0.922709 19.2353 0.793959 19.3357 0.699884C19.4361 0.605809 19.5685 0.553458 19.7061 0.553458C19.8436 0.553458 19.9761 0.605809 20.0765 0.699884C20.1769 0.793959 20.2377 0.922709 20.2466 1.06Z" fill="#F6C948"/>
<path d="M9.37128 12.8474H11.5541V15.0303H9.37128V12.8474Z" fill="#F6C948"/>
<path d="M13.4466 12.8474H15.6295V15.0303H13.4466V12.8474Z" fill="#F6C948"/>
<path d="M17.522 12.8474H19.7049V15.0303H17.522V12.8474Z" fill="#F6C948"/>
<path d="M5.29592 16.2691H7.47877V18.452H5.29592V16.2691Z" fill="#F6C948"/>
<path d="M9.37128 16.2691H11.5541V18.452H9.37128V16.2691Z" fill="#F6C948"/>
<path d="M13.4466 16.2691H15.6295V18.452H13.4466V16.2691Z" fill="#F6C948"/>
<path d="M17.522 16.2691H19.7049V18.452H17.522V16.2691Z" fill="#F6C948"/>
<path d="M5.29592 19.6909H7.47877V21.8737H5.29592V19.6909Z" fill="#F6C948"/>
<path d="M9.37128 19.6909H11.5541V21.8737H9.37128V19.6909Z" fill="#F6C948"/>
<path d="M13.4466 19.6909H15.6295V21.8737H13.4466V19.6909Z" fill="#F6C948"/>
<path d="M23.4605 8.92057V21.588C23.4599 22.094 23.2586 22.5791 22.9008 22.9369C22.543 23.2947 22.0579 23.496 21.5519 23.4966H3.45133C2.94512 23.496 2.45978 23.2948 2.10162 22.937C1.74347 22.5793 1.54168 22.0942 1.54047 21.588V8.92057H23.4605ZM24.4433 7.93771H0.557617V21.588C0.557617 21.9679 0.632482 22.3441 0.777932 22.695C0.923383 23.046 1.13657 23.3648 1.4053 23.6333C1.67404 23.9019 1.99306 24.1148 2.34413 24.26C2.69519 24.4051 3.07143 24.4797 3.45133 24.4794H21.5519C21.9316 24.4794 22.3076 24.4046 22.6584 24.2593C23.0092 24.114 23.3279 23.901 23.5964 23.6325C23.8649 23.364 24.0779 23.0453 24.2232 22.6945C24.3685 22.3437 24.4433 21.9677 24.4433 21.588V7.93771Z" stroke="#F6C948" stroke-width="0.4" mask="url(#path-1-outside-1_134_1315)"/>
<path d="M21.5519 2.78342C22.0581 2.78463 22.5432 2.98641 22.9009 3.34457C23.2587 3.70273 23.4599 4.18807 23.4605 4.69428V7.86913H1.54047V4.69428C1.54108 4.18767 1.74259 3.70199 2.10082 3.34377C2.45904 2.98554 2.94473 2.78403 3.45133 2.78342H21.5519ZM21.5519 1.80056H3.45133C2.68387 1.80056 1.94784 2.10544 1.40517 2.64811C0.86249 3.19079 0.557617 3.92682 0.557617 4.69428V8.85199H24.4433V4.69428C24.4433 3.92721 24.1388 3.19153 23.5966 2.64892C23.0544 2.10631 22.319 1.80117 21.5519 1.80056Z" stroke="#F6C948" stroke-width="0.4" mask="url(#path-1-outside-1_134_1315)"/>
<path d="M5.83524 1.06V5.268C5.83524 5.41106 5.77841 5.54827 5.67724 5.64943C5.57608 5.75059 5.43888 5.80742 5.29581 5.80742C5.15275 5.80742 5.01554 5.75059 4.91438 5.64943C4.81322 5.54827 4.75638 5.41106 4.75638 5.268V1.06C4.75638 0.916932 4.81322 0.779726 4.91438 0.678564C5.01554 0.577401 5.15275 0.520569 5.29581 0.520569C5.43888 0.520569 5.57608 0.577401 5.67724 0.678564C5.77841 0.779726 5.83524 0.916932 5.83524 1.06Z" stroke="#F6C948" stroke-width="0.4" mask="url(#path-1-outside-1_134_1315)"/>
<path d="M10.64 1.06V5.268C10.6311 5.40529 10.5702 5.53405 10.4698 5.62812C10.3694 5.7222 10.237 5.77455 10.0994 5.77455C9.96183 5.77455 9.82941 5.7222 9.72901 5.62812C9.62862 5.53405 9.56778 5.40529 9.55885 5.268V1.06C9.56778 0.922709 9.62862 0.793959 9.72901 0.699884C9.82941 0.605809 9.96183 0.553458 10.0994 0.553458C10.237 0.553458 10.3694 0.605809 10.4698 0.699884C10.5702 0.793959 10.6311 0.922709 10.64 1.06Z" stroke="#F6C948" stroke-width="0.4" mask="url(#path-1-outside-1_134_1315)"/>
<path d="M15.4423 1.06V5.268C15.4423 5.41106 15.3854 5.54827 15.2843 5.64943C15.1831 5.75059 15.0459 5.80742 14.9028 5.80742C14.7598 5.80742 14.6226 5.75059 14.5214 5.64943C14.4202 5.54827 14.3634 5.41106 14.3634 5.268V1.06C14.3634 0.916932 14.4202 0.779726 14.5214 0.678564C14.6226 0.577401 14.7598 0.520569 14.9028 0.520569C15.0459 0.520569 15.1831 0.577401 15.2843 0.678564C15.3854 0.779726 15.4423 0.916932 15.4423 1.06Z" stroke="#F6C948" stroke-width="0.4" mask="url(#path-1-outside-1_134_1315)"/>
<path d="M20.2466 1.06V5.268C20.2377 5.40529 20.1769 5.53405 20.0765 5.62812C19.9761 5.7222 19.8436 5.77455 19.7061 5.77455C19.5685 5.77455 19.4361 5.7222 19.3357 5.62812C19.2353 5.53405 19.1744 5.40529 19.1655 5.268V1.06C19.1744 0.922709 19.2353 0.793959 19.3357 0.699884C19.4361 0.605809 19.5685 0.553458 19.7061 0.553458C19.8436 0.553458 19.9761 0.605809 20.0765 0.699884C20.1769 0.793959 20.2377 0.922709 20.2466 1.06Z" stroke="#F6C948" stroke-width="0.4" mask="url(#path-1-outside-1_134_1315)"/>
<path d="M9.37128 12.8474H11.5541V15.0303H9.37128V12.8474Z" stroke="#F6C948" stroke-width="0.4" mask="url(#path-1-outside-1_134_1315)"/>
<path d="M13.4466 12.8474H15.6295V15.0303H13.4466V12.8474Z" stroke="#F6C948" stroke-width="0.4" mask="url(#path-1-outside-1_134_1315)"/>
<path d="M17.522 12.8474H19.7049V15.0303H17.522V12.8474Z" stroke="#F6C948" stroke-width="0.4" mask="url(#path-1-outside-1_134_1315)"/>
<path d="M5.29592 16.2691H7.47877V18.452H5.29592V16.2691Z" stroke="#F6C948" stroke-width="0.4" mask="url(#path-1-outside-1_134_1315)"/>
<path d="M9.37128 16.2691H11.5541V18.452H9.37128V16.2691Z" stroke="#F6C948" stroke-width="0.4" mask="url(#path-1-outside-1_134_1315)"/>
<path d="M13.4466 16.2691H15.6295V18.452H13.4466V16.2691Z" stroke="#F6C948" stroke-width="0.4" mask="url(#path-1-outside-1_134_1315)"/>
<path d="M17.522 16.2691H19.7049V18.452H17.522V16.2691Z" stroke="#F6C948" stroke-width="0.4" mask="url(#path-1-outside-1_134_1315)"/>
<path d="M5.29592 19.6909H7.47877V21.8737H5.29592V19.6909Z" stroke="#F6C948" stroke-width="0.4" mask="url(#path-1-outside-1_134_1315)"/>
<path d="M9.37128 19.6909H11.5541V21.8737H9.37128V19.6909Z" stroke="#F6C948" stroke-width="0.4" mask="url(#path-1-outside-1_134_1315)"/>
<path d="M13.4466 19.6909H15.6295V21.8737H13.4466V19.6909Z" stroke="#F6C948" stroke-width="0.4" mask="url(#path-1-outside-1_134_1315)"/>
</svg>
